<svg width="50" height="53" viewBox="0 0 50 53" fill="none" xmlns="http://www.w3.org/2000/svg">
<path d="M33.713 52.8417H16.2884C14.1998 52.8417 12.5006 51.1425 12.5006 49.054V17.9929C12.5006 15.9043 14.1998 14.2051 16.2884 14.2051H33.713C35.8015 14.2051 37.5008 15.9043 37.5008 17.9929V49.054C37.5012 51.1428 35.8018 52.8422 33.7134 52.8422L33.713 52.8417ZM16.2884 15.3411C14.8266 15.3411 13.6369 16.5306 13.6369 17.9925V49.0536C13.6369 50.5155 14.8265 51.7051 16.2884 51.7051H33.713C35.1748 51.7051 36.3644 50.5156 36.3644 49.0536L36.3648 17.9925C36.3648 16.5307 35.1753 15.3411 33.7134 15.3411H16.2884Z" fill="black"/>
<path d="M31.2506 15.3411H18.7507C18.437 15.3411 18.1825 15.0866 18.1825 14.7729V12.1308C18.1825 10.768 19.2913 9.65918 20.6541 9.65918H29.3474C30.7102 9.65918 31.819 10.768 31.819 12.1308V14.7729C31.819 15.0866 31.5645 15.3411 31.2508 15.3411H31.2506ZM19.319 14.2047H30.6833V12.1308C30.6833 11.3946 30.0842 10.7955 29.348 10.7955H20.6547C19.9185 10.7955 19.3194 11.3945 19.3194 12.1308L19.319 14.2047Z" fill="black"/>
<path d="M27.8407 10.7955H22.1588C21.8451 10.7955 21.5906 10.5411 21.5906 10.2273V3.40907C21.5906 1.52916 23.1198 0 24.9997 0C26.8795 0 28.4087 1.52926 28.4087 3.40907V10.2273C28.4087 10.541 28.1543 10.7955 27.8405 10.7955H27.8407ZM22.727 9.65909H27.2725V3.40905C27.2725 2.15585 26.253 1.1363 24.9997 1.1363C23.7465 1.1363 22.727 2.15579 22.727 3.40905V9.65909Z" fill="black"/>
<path d="M27.8407 5.11344H22.1588C21.8451 5.11344 21.5906 4.85897 21.5906 4.54524C21.5906 4.23152 21.845 3.97705 22.1588 3.97705H27.8407C28.1544 3.97705 28.4089 4.23152 28.4089 4.54524C28.4089 4.85897 28.1544 5.11344 27.8407 5.11344Z" fill="black"/>
<path d="M36.9317 43.7506H13.0676C12.7539 43.7506 12.4994 43.4962 12.4994 43.1825C12.4994 42.8687 12.7539 42.6143 13.0676 42.6143H36.9317C37.2454 42.6143 37.4999 42.8687 37.4999 43.1825C37.4999 43.4962 37.2455 43.7506 36.9317 43.7506Z" fill="black"/>
<path d="M36.9318 23.2956H21.023C20.7093 23.2956 20.4548 23.0411 20.4548 22.7274C20.4548 22.4136 20.7093 22.1592 21.023 22.1592H36.9318C37.2455 22.1592 37.5 22.4136 37.5 22.7274C37.5 23.0411 37.2455 23.2956 36.9318 23.2956Z" fill="black"/>
<path d="M30.114 36.9318H17.6141C17.3004 36.9318 17.0459 36.6773 17.0459 36.3636C17.0459 36.0499 17.3004 35.7954 17.6141 35.7954H30.114C30.4277 35.7954 30.6822 36.0499 30.6822 36.3636C30.6822 36.6773 30.4277 36.9318 30.114 36.9318Z" fill="black"/>
<path d="M22.1596 40.341H17.6141C17.3004 40.341 17.0459 40.0865 17.0459 39.7728C17.0459 39.4591 17.3004 39.2046 17.6141 39.2046H22.1596C22.4733 39.2046 22.7278 39.4591 22.7278 39.7728C22.7278 40.0865 22.4733 40.341 22.1596 40.341Z" fill="black"/>
<path d="M34.6595 36.3635C34.6595 36.9909 34.1505 37.4999 33.523 37.4999C32.8955 37.4999 32.3866 36.991 32.3866 36.3635C32.3866 35.736 32.8955 35.2271 33.523 35.2271C34.1505 35.2271 34.6595 35.736 34.6595 36.3635Z" fill="black"/>
<path d="M49.4326 25.0002C49.4326 25.6276 48.9237 26.1366 48.2962 26.1366C47.6687 26.1366 47.1598 25.6277 47.1598 25.0002C47.1598 24.3727 47.6687 23.8638 48.2962 23.8638C48.9237 23.8638 49.4326 24.3727 49.4326 25.0002Z" fill="black"/>
<path d="M42.6138 38.6369C42.6138 39.2644 42.1049 39.7733 41.4774 39.7733C40.8499 39.7733 40.3409 39.2644 40.3409 38.6369C40.3409 38.0094 40.8499 37.5005 41.4774 37.5005C42.1049 37.5005 42.6138 38.0094 42.6138 38.6369Z" fill="black"/>
<path d="M40.3416 4.54561C40.3416 5.17305 39.8326 5.68203 39.2052 5.68203C38.5777 5.68203 38.0687 5.1731 38.0687 4.54561C38.0687 3.91811 38.5777 3.40918 39.2052 3.40918C39.8326 3.40918 40.3416 3.91811 40.3416 4.54561Z" fill="black"/>
<path d="M15.3408 5.68184C15.3408 6.30928 14.8319 6.81826 14.2044 6.81826C13.5769 6.81826 13.068 6.30933 13.068 5.68184C13.068 5.05434 13.5769 4.54541 14.2044 4.54541C14.8319 4.54541 15.3408 5.05434 15.3408 5.68184Z" fill="black"/>
<path d="M5.11319 18.1813C5.11319 18.8088 4.60426 19.3178 3.97676 19.3178C3.34926 19.3178 2.84033 18.8088 2.84033 18.1813C2.84033 17.5539 3.34926 17.0449 3.97676 17.0449C4.60426 17.0449 5.11319 17.5539 5.11319 18.1813Z" fill="black"/>
<path d="M8.5231 46.591C8.5231 47.2185 8.01417 47.7274 7.38667 47.7274C6.75917 47.7274 6.25024 47.2185 6.25024 46.591C6.25024 45.9635 6.75917 45.4546 7.38667 45.4546C8.01417 45.4546 8.5231 45.9635 8.5231 46.591Z" fill="black"/>
<path d="M18.7497 22.7272C18.7497 23.3547 18.2407 23.8637 17.6132 23.8637C16.9857 23.8637 16.4768 23.3547 16.4768 22.7272C16.4768 22.0998 16.9857 21.5908 17.6132 21.5908C18.2407 21.5908 18.7497 22.0998 18.7497 22.7272Z" fill="black"/>
<path d="M26.7052 15.3412C26.3914 15.3412 26.137 15.0867 26.137 14.773V13.6366C26.137 13.3228 26.3914 13.0684 26.7052 13.0684C27.0189 13.0684 27.2734 13.3228 27.2734 13.6366V14.773C27.2734 15.0867 27.0189 15.3412 26.7052 15.3412Z" fill="black"/>
<path d="M23.2952 15.3412C22.9815 15.3412 22.7271 15.0867 22.7271 14.773V13.6366C22.7271 13.3228 22.9815 13.0684 23.2952 13.0684C23.609 13.0684 23.8634 13.3228 23.8634 13.6366V14.773C23.8634 15.0867 23.609 15.3412 23.2952 15.3412Z" fill="black"/>
<path d="M2.84096 40.3406C1.2744 40.3406 0 39.0662 0 37.4997C0 35.9331 1.2744 34.6587 2.84096 34.6587C4.40753 34.6587 5.68193 35.9331 5.68193 37.4997C5.68193 39.0662 4.40753 40.3406 2.84096 40.3406ZM2.84096 35.7951C1.90102 35.7951 1.13643 36.5597 1.13643 37.4997C1.13643 38.4396 1.90105 39.2042 2.84096 39.2042C3.78088 39.2042 4.5455 38.4396 4.5455 37.4997C4.5455 36.5597 3.78088 35.7951 2.84096 35.7951Z" fill="black"/>
<path d="M46.0227 18.75C43.8295 18.75 42.0454 16.9659 42.0454 14.7727C42.0454 12.5795 43.8295 10.7954 46.0227 10.7954C48.2159 10.7954 50 12.5795 50 14.7727C50 16.9659 48.2159 18.75 46.0227 18.75ZM46.0227 11.9317C44.4561 11.9317 43.1817 13.2061 43.1817 14.7727C43.1817 16.3393 44.4561 17.6137 46.0227 17.6137C47.5893 17.6137 48.8637 16.3393 48.8637 14.7727C48.8637 13.2061 47.5893 11.9317 46.0227 11.9317Z" fill="black"/>
<path d="M36.9317 26.7043H13.0676C12.7539 26.7043 12.4994 26.4498 12.4994 26.1361C12.4994 25.8223 12.7539 25.5679 13.0676 25.5679H36.9317C37.2454 25.5679 37.4999 25.8223 37.4999 26.1361C37.4999 26.4498 37.2455 26.7043 36.9317 26.7043Z" fill="black"/>
</svg>
