<svg width="50" height="55" viewBox="0 0 50 55" fill="none" xmlns="http://www.w3.org/2000/svg">
<path d="M47.258 32.9024C46.7864 32.9008 46.3225 33.0228 45.9124 33.2557C45.5705 32.7184 45.0519 32.3173 44.4455 32.1211C43.8396 31.9252 43.1844 31.9464 42.5928 32.1819C42.4308 31.6033 42.0852 31.0929 41.6078 30.7285C41.1305 30.3638 40.547 30.1642 39.9464 30.1606C39.6351 30.1606 39.3258 30.2136 39.0325 30.3177V28.3326C39.0288 27.6064 38.7391 26.9112 38.2254 26.3979C37.7121 25.8842 37.0169 25.5945 36.2906 25.5908C35.5635 25.5916 34.8666 25.8809 34.3525 26.3946C33.8388 26.9087 33.5495 27.6056 33.5487 28.3327V37.8216L32.5915 38.3002V38.2998C31.0354 39.0774 30.0108 40.6247 29.9023 42.3608C29.7942 44.0969 30.618 45.7595 32.0656 46.7245L34.559 48.3867C35.0698 48.7258 35.3766 49.2982 35.3766 49.9111V54.8375H37.2046V49.9111C37.2054 48.6874 36.5933 47.5442 35.5742 46.8665L34.0547 45.8501L33.0799 45.2034H33.0795C32.4206 44.7644 31.9579 44.0859 31.7902 43.3119C31.6225 42.5379 31.7628 41.7288 32.1811 41.0564C32.4773 40.5749 32.9028 40.1861 33.4096 39.9348L33.5492 39.865V42.0422H35.3771V28.3328C35.3779 27.8281 35.7867 27.4193 36.291 27.4189C36.5293 27.4164 36.7578 27.5115 36.9247 27.6817C36.9308 27.6878 36.9361 27.6935 36.9426 27.6996C37.1124 27.8661 37.207 28.095 37.2046 28.3328V36.5585H39.0325V32.9026C39.0329 32.3979 39.4417 31.9891 39.9465 31.9887C40.1847 31.9862 40.4132 32.0813 40.5801 32.2514C40.5862 32.2576 40.5915 32.2633 40.5981 32.2694C40.7678 32.4359 40.8629 32.6648 40.8604 32.9026V37.4724H42.6883V34.7305C42.6887 34.2258 43.0976 33.817 43.6023 33.8166C43.8405 33.8141 44.0691 33.9092 44.2359 34.0793C44.242 34.0855 44.2473 34.0912 44.2539 34.0973C44.4236 34.2638 44.5187 34.4927 44.5162 34.7305V38.3864H46.3441V35.6445C46.3417 35.4062 46.4368 35.1777 46.6069 35.0108C46.613 35.0047 46.6187 34.9994 46.6249 34.9929C46.7913 34.8232 47.0202 34.7281 47.2581 34.7305C47.7628 34.7309 48.1716 35.1398 48.1721 35.6445V40.6986C48.1721 42.6077 47.8383 44.5021 47.1863 46.2966C46.9729 46.8874 46.7248 47.4648 46.4437 48.0263C46.3784 48.1544 46.3441 48.2964 46.3441 48.44V54.8377H48.1721V48.655C49.3733 46.1747 49.9983 43.4549 50 40.6987V35.6446C49.9991 34.9175 49.7099 34.2206 49.1958 33.7069C48.6821 33.1928 47.9852 32.9035 47.2581 32.9027L47.258 32.9024Z" fill="black"/>
<path d="M14.3556 9.13965H16.1835V10.9676H14.3556V9.13965Z" fill="black"/>
<path d="M19.8394 9.13965H21.6673V10.9676H19.8394V9.13965Z" fill="black"/>
<path d="M25.3231 9.13965H27.151V10.9676H25.3231V9.13965Z" fill="black"/>
<path d="M28.9789 9.13965H30.8068V10.9676H28.9789V9.13965Z" fill="black"/>
<path d="M34.4626 9.13965H36.2906V10.9676H34.4626V9.13965Z" fill="black"/>
<path d="M38.1185 9.13965H39.9464V10.9676H38.1185V9.13965Z" fill="black"/>
<path d="M38.1185 12.7954H39.9464V14.6233H38.1185V12.7954Z" fill="black"/>
<path d="M19.8394 12.7954H21.6673V14.6233H19.8394V12.7954Z" fill="black"/>
<path d="M25.3231 18.2793H27.151V20.1072H25.3231V18.2793Z" fill="black"/>
<path d="M18.0115 18.2793H19.8394V20.1072H18.0115V18.2793Z" fill="black"/>
<path d="M21.6674 21.9351H23.4953V23.763H21.6674V21.9351Z" fill="black"/>
<path d="M28.9789 18.2793H30.8068V20.1072H28.9789V18.2793Z" fill="black"/>
<path d="M25.3231 21.9351H27.151V23.763H25.3231V21.9351Z" fill="black"/>
<path d="M15.2697 26.5049H17.0976V28.3328H15.2697V26.5049Z" fill="black"/>
<path d="M15.2697 30.1606H17.0976V31.9886H15.2697V30.1606Z" fill="black"/>
<path d="M18.9254 30.1606H20.7533V31.9886H18.9254V30.1606Z" fill="black"/>
<path d="M18.9254 35.6445H20.7533V37.4724H18.9254V35.6445Z" fill="black"/>
<path d="M15.2697 39.3003H17.0976V41.1282H15.2697V39.3003Z" fill="black"/>
<path d="M18.9254 39.3003H20.7533V41.1282H18.9254V39.3003Z" fill="black"/>
<path d="M24.4092 30.1606H26.2371V31.9886H24.4092V30.1606Z" fill="black"/>
<path d="M28.0649 26.5049H29.8929V28.3328H28.0649V26.5049Z" fill="black"/>
<path d="M34.4626 18.2793H36.2906V20.1072H34.4626V18.2793Z" fill="black"/>
<path d="M38.1185 18.2793H39.9464V20.1072H38.1185V18.2793Z" fill="black"/>
<path d="M38.1185 21.9351H39.9464V23.763H38.1185V21.9351Z" fill="black"/>
<path d="M34.4626 21.9351H36.2906V23.763H34.4626V21.9351Z" fill="black"/>
<path d="M5.21607 48.4398V46.6119H28.065V44.7839H10.6998V32.3667L11.3461 31.7204C12.3747 30.6909 13.001 29.3274 13.1108 27.876C13.2206 26.4251 12.8068 24.9828 11.9447 23.8101L15.459 20.2958C16.1747 19.574 16.4521 18.5263 16.1877 17.545C15.9233 16.5637 15.1567 15.7971 14.1754 15.5326C13.1941 15.2682 12.1463 15.5456 11.4245 16.2613L10.6999 16.9859V5.48367H43.6023V30.1605H45.4302V4.56972C45.4302 4.32736 45.3339 4.09478 45.1626 3.92342C44.9912 3.75206 44.7586 3.65576 44.5163 3.65576H9.78591C9.2812 3.65576 8.87196 4.06501 8.87196 4.56972V14.6232H6.13009C5.16065 14.6245 4.23157 15.01 3.54615 15.6951C2.86109 16.3806 2.47552 17.3096 2.47426 18.2791V26.126L0 28.6003L1.2926 29.8929L4.03447 27.151C4.20583 26.9797 4.30212 26.7471 4.30212 26.5047V18.2791C4.30253 17.7944 4.49553 17.3301 4.83826 16.9874C5.18098 16.6446 5.64531 16.4516 6.13001 16.4512H8.87188V18.8145L7.31158 20.3748L8.60417 21.6674L12.717 17.5546C13.1172 17.1543 13.766 17.1543 14.1663 17.5546C14.5665 17.9548 14.5665 18.6036 14.1663 19.0038L10.0534 23.1166C9.88208 23.288 9.78579 23.5206 9.78579 23.7629C9.78579 24.0053 9.88208 24.2379 10.0534 24.4092C10.8503 25.2081 11.2979 26.2902 11.2979 27.4187C11.2979 28.5472 10.8503 29.6293 10.0534 30.4282L5.48367 34.998L6.77626 36.2906L8.87178 34.195V44.7844H4.302C3.79729 44.7844 3.38804 45.1936 3.38804 45.6984V48.4402C3.38927 49.4097 3.77484 50.3387 4.45993 51.0242C5.1454 51.7092 6.07445 52.0948 7.04387 52.096H33.5486V50.2681H7.04387C6.55915 50.2677 6.09482 50.0747 5.75211 49.732C5.40939 49.3893 5.21638 48.9249 5.21598 48.4402L5.21607 48.4398Z" fill="black"/>
<path d="M47.2581 3.65583V21.021H49.086V3.65583C49.0848 2.68638 48.6992 1.7573 48.0141 1.07189C47.3287 0.386828 46.3996 0.00125343 45.4302 0H37.2046V1.82791H45.4302C45.9149 1.82832 46.3792 2.02132 46.722 2.36404C47.0647 2.70677 47.2577 3.1711 47.2581 3.6558L47.2581 3.65583Z" fill="black"/>
<path d="M47.2581 22.8486H49.086V24.6765H47.2581V22.8486Z" fill="black"/>
</svg>
