<svg width="50" height="46" viewBox="0 0 50 46" fill="none" xmlns="http://www.w3.org/2000/svg">
<path d="M9.44178 20.3627H1.71642C1.53861 20.3627 1.39453 20.2186 1.39453 20.0408V12.2081C1.39453 12.0303 1.53862 11.8862 1.71642 11.8862H9.44178C9.61959 11.8862 9.76367 12.0303 9.76367 12.2081V20.0408C9.76367 20.2186 9.61958 20.3627 9.44178 20.3627ZM2.03828 19.7189H9.11992V12.5301H2.03828V19.7189Z" fill="black"/>
<path d="M20.7076 20.3627H12.8749C12.6971 20.3627 12.553 20.2186 12.553 20.0408V12.2081C12.553 12.0303 12.6971 11.8862 12.8749 11.8862H20.7076C20.8854 11.8862 21.0294 12.0303 21.0294 12.2081V20.0408C21.0294 20.2186 20.8853 20.3627 20.7076 20.3627ZM13.1968 19.7189H20.3857V12.5301H13.1968V19.7189Z" fill="black"/>
<path d="M31.8663 20.3627H24.141C23.9632 20.3627 23.8191 20.2186 23.8191 20.0408V12.2081C23.8191 12.0303 23.9632 11.8862 24.141 11.8862H31.8663C32.0441 11.8862 32.1882 12.0303 32.1882 12.2081V20.0408C32.1882 20.2186 32.0441 20.3627 31.8663 20.3627ZM24.4628 19.7189H31.5445V12.5301H24.4628V19.7189Z" fill="black"/>
<path d="M9.44178 31.1987H1.71642C1.53861 31.1987 1.39453 31.0546 1.39453 30.8768V23.1515C1.39453 22.9737 1.53862 22.8296 1.71642 22.8296H9.44178C9.61959 22.8296 9.76367 22.9737 9.76367 23.1515V30.8768C9.76367 31.0547 9.61958 31.1987 9.44178 31.1987ZM2.03828 30.5549H9.11992V23.4733H2.03828V30.5549Z" fill="black"/>
<path d="M20.7076 31.1987H12.8749C12.6971 31.1987 12.553 31.0546 12.553 30.8768V23.1515C12.553 22.9737 12.6971 22.8296 12.8749 22.8296H20.7076C20.8854 22.8296 21.0294 22.9737 21.0294 23.1515V30.8768C21.0294 31.0547 20.8853 31.1987 20.7076 31.1987ZM13.1968 30.5549H20.3857V23.4733H13.1968V30.5549Z" fill="black"/>
<path d="M31.8663 31.1987H24.141C23.9632 31.1987 23.8191 31.0546 23.8191 30.8768V23.1515C23.8191 22.9737 23.9632 22.8296 24.141 22.8296H31.8663C32.0441 22.8296 32.1882 22.9737 32.1882 23.1515V30.8768C32.1882 31.0547 32.0441 31.1987 31.8663 31.1987ZM24.4628 30.5549H31.5445V23.4733H24.4628V30.5549Z" fill="black"/>
<path d="M9.44178 42.144H1.71642C1.53861 42.144 1.39453 42 1.39453 41.8222V34.0968C1.39453 33.919 1.53862 33.7749 1.71642 33.7749H9.44178C9.61959 33.7749 9.76367 33.919 9.76367 34.0968V41.8222C9.76367 42 9.61958 42.144 9.44178 42.144ZM2.03828 41.5003H9.11992V34.4186H2.03828V41.5003Z" fill="black"/>
<path d="M20.7076 42.144H12.8749C12.6971 42.144 12.553 42 12.553 41.8222V34.0968C12.553 33.919 12.6971 33.7749 12.8749 33.7749H20.7076C20.8854 33.7749 21.0294 33.919 21.0294 34.0968V41.8222C21.0294 42 20.8853 42.144 20.7076 42.144ZM13.1968 41.5003H20.3857V34.4186H13.1968V41.5003Z" fill="black"/>
<path d="M31.8663 42.144H24.141C23.9632 42.144 23.8191 42 23.8191 41.8222V34.0968C23.8191 33.919 23.9632 33.7749 24.141 33.7749H31.8663C32.0441 33.7749 32.1882 33.919 32.1882 34.0968V41.8222C32.1882 42 32.0441 42.144 31.8663 42.144ZM24.4628 41.5003H31.5445V34.4186H24.4628V41.5003Z" fill="black"/>
<path d="M31.8664 42.1438C31.8078 42.1438 31.7496 42.128 31.6978 42.0962C31.6024 42.0376 31.5446 41.9338 31.5446 41.8219V12.2075C31.5446 12.086 31.6128 11.9752 31.7212 11.9201L49.5322 2.90712C49.6322 2.85692 49.751 2.86152 49.8461 2.92015C49.9415 2.97878 49.9994 3.08262 49.9994 3.19453V32.8089C49.9994 32.9304 49.9311 33.0412 49.8227 33.0963L32.0117 42.1093C31.9661 42.1319 31.9163 42.1438 31.8664 42.1438H31.8664ZM32.1883 12.4057V41.2981L49.3558 32.6109V3.7185L32.1883 12.4057Z" fill="black"/>
<path d="M31.8663 12.5294H1.71632C1.56495 12.5294 1.43428 12.424 1.40171 12.2761C1.36952 12.1282 1.44425 11.9779 1.58181 11.9147L22.3976 2.36528C22.4417 2.34497 22.4892 2.33424 22.5383 2.33616L49.6845 2.87265C49.8324 2.87571 49.9592 2.97879 49.9918 3.12288C50.0248 3.26697 49.9554 3.41488 49.8232 3.48155L32.0122 12.4945C31.9677 12.5175 31.9179 12.5294 31.8673 12.5294L31.8663 12.5294ZM3.18978 11.8856H31.7898L48.3795 3.49079L22.5988 2.98151L3.18978 11.8856Z" fill="black"/>
<path d="M27.4675 43.9675H2.68163C2.50382 43.9675 2.35974 43.8234 2.35974 43.6456C2.35974 43.4678 2.50383 43.3237 2.68163 43.3237H27.4675C27.6454 43.3237 27.7894 43.4678 27.7894 43.6456C27.7894 43.8234 27.6453 43.9675 27.4675 43.9675Z" fill="black"/>
<path d="M34.3346 45.4695H17.1671C16.9893 45.4695 16.8452 45.3254 16.8452 45.1476C16.8452 44.9698 16.9893 44.8257 17.1671 44.8257H34.3346C34.5124 44.8257 34.6565 44.9698 34.6565 45.1476C34.6565 45.3254 34.5124 45.4695 34.3346 45.4695Z" fill="black"/>
<path d="M38.3047 45.4695H36.1588C35.981 45.4695 35.8369 45.3254 35.8369 45.1476C35.8369 44.9698 35.981 44.8257 36.1588 44.8257H38.3047C38.4825 44.8257 38.6266 44.9698 38.6266 45.1476C38.6266 45.3254 38.4825 45.4695 38.3047 45.4695Z" fill="black"/>
<path d="M9.76353 45.3625H1.71629C1.53849 45.3625 1.39441 45.2184 1.39441 45.0406C1.39441 44.8628 1.5385 44.7188 1.71629 44.7188H9.76353C9.94133 44.7188 10.0854 44.8628 10.0854 45.0406C10.0854 45.2184 9.94132 45.3625 9.76353 45.3625Z" fill="black"/>
<path d="M37.4464 36.0273C37.3237 36.0273 37.2069 35.9568 37.1528 35.838C37.0796 35.6759 37.1513 35.4855 37.3134 35.4119L46.137 31.4201V15.319C46.137 15.1412 46.2811 14.9971 46.4589 14.9971C46.6367 14.9971 46.7808 15.1412 46.7808 15.319V31.6281C46.7808 31.7545 46.7068 31.8691 46.5915 31.9212L37.5785 35.9984C37.5356 36.018 37.4904 36.0272 37.4463 36.0272L37.4464 36.0273Z" fill="black"/>
<path d="M0.321988 10.1692C0.200128 10.1692 0.0836345 10.0998 0.029601 9.98219C-0.0447401 9.82087 0.0257689 9.62964 0.1871 9.5553L0.674147 9.33074C0.835472 9.25601 1.0267 9.32691 1.10104 9.48824C1.17538 9.64956 1.10487 9.84079 0.943539 9.91513L0.456493 10.1397C0.412808 10.1596 0.366823 10.1692 0.321988 10.1692V10.1692ZM2.56298 9.13571C2.44112 9.13571 2.32463 9.06635 2.27059 8.94871C2.19625 8.78738 2.26676 8.59616 2.42809 8.52182L2.91514 8.29726C3.07647 8.22253 3.26769 8.29342 3.34203 8.45476C3.41637 8.61609 3.34586 8.80731 3.18453 8.88165L2.69749 9.10621C2.6538 9.12613 2.6082 9.13571 2.56298 9.13571V9.13571ZM4.80398 8.10222C4.68212 8.10222 4.56562 8.03286 4.51159 7.91483C4.43725 7.75351 4.50776 7.56228 4.66909 7.48794L5.15614 7.26338C5.31746 7.18866 5.50869 7.25955 5.58303 7.42088C5.65737 7.58221 5.58686 7.77343 5.42553 7.84777L4.93848 8.07233C4.8948 8.09264 4.84919 8.10222 4.80398 8.10222V8.10222ZM7.04497 7.06874C6.92311 7.06874 6.80662 6.99938 6.75258 6.88174C6.67824 6.72042 6.74875 6.52919 6.91008 6.45485L7.39713 6.23029C7.55845 6.15557 7.74968 6.22646 7.82402 6.38779C7.89836 6.54912 7.82785 6.74034 7.66652 6.81468L7.17947 7.03924C7.13617 7.05917 7.09019 7.06875 7.04497 7.06875V7.06874ZM9.28596 6.03526C9.1641 6.03526 9.04761 5.9659 8.99358 5.84826C8.91924 5.68694 8.98975 5.49571 9.15108 5.42137L9.63812 5.19681C9.79945 5.12208 9.99068 5.19298 10.065 5.35431C10.1394 5.51564 10.0688 5.70686 9.90752 5.7812L9.42047 6.00576C9.37717 6.02607 9.33118 6.03527 9.28596 6.03527V6.03526ZM11.527 5.00217C11.4051 5.00217 11.2886 4.93281 11.2346 4.81517C11.1602 4.65385 11.2307 4.46262 11.3921 4.38828L11.8791 4.16372C12.0404 4.08899 12.2317 4.15989 12.306 4.32122C12.3803 4.48255 12.3098 4.67377 12.1485 4.74811L11.6615 4.97267C11.6182 4.9926 11.5722 5.00218 11.527 5.00218V5.00217ZM13.7683 3.96869C13.6465 3.96869 13.53 3.89933 13.476 3.78169C13.4016 3.62036 13.4721 3.42914 13.6335 3.3548L14.1205 3.13024C14.2818 3.05551 14.4731 3.1264 14.5474 3.28774C14.6217 3.44906 14.5512 3.64029 14.3899 3.71463L13.9029 3.93919C13.8592 3.95911 13.8132 3.96869 13.7683 3.96869V3.96869ZM16.0093 2.9352C15.8875 2.9352 15.771 2.86584 15.717 2.74821C15.6426 2.58688 15.7131 2.39565 15.8745 2.32131L16.3615 2.09675C16.5228 2.02203 16.7141 2.09292 16.7884 2.25425C16.8627 2.41558 16.7922 2.6068 16.6309 2.68114L16.1438 2.90571C16.1002 2.92563 16.0542 2.93521 16.0093 2.93521V2.9352ZM18.2503 1.90172C18.1285 1.90172 18.012 1.83236 17.9579 1.71472C17.8836 1.5534 17.9541 1.36217 18.1154 1.28783L18.6025 1.06327C18.7638 0.988547 18.955 1.05944 19.0294 1.22077C19.1037 1.3821 19.0332 1.57332 18.8719 1.64766L18.3848 1.87222C18.3412 1.89215 18.2956 1.90173 18.2503 1.90173V1.90172ZM48.1139 1.15294H48.1074L47.5709 1.1426C47.3931 1.13915 47.2517 0.991995 47.2555 0.814189C47.259 0.636383 47.4065 0.496512 47.5836 0.498818L48.1201 0.509164C48.2979 0.512613 48.4393 0.659767 48.4354 0.837573C48.432 1.01308 48.2887 1.15294 48.1139 1.15294H48.1139ZM45.6465 1.10428H45.64L45.1035 1.09393C44.9257 1.09048 44.7843 0.943329 44.7881 0.765523C44.7916 0.587717 44.9376 0.447463 45.1162 0.450151L45.6526 0.460498C45.8304 0.463947 45.9719 0.611101 45.968 0.788907C45.9646 0.964417 45.8212 1.10428 45.6465 1.10428H45.6465ZM43.1791 1.05561H43.1726L42.6361 1.04527C42.4583 1.04182 42.3169 0.894662 42.3207 0.716856C42.3242 0.53905 42.4686 0.398797 42.6487 0.401485L43.1852 0.411831C43.363 0.41528 43.5044 0.562435 43.5006 0.740241C43.4975 0.915751 43.3542 1.05561 43.1791 1.05561H43.1791ZM40.7117 1.00733H40.7052L40.1687 0.996982C39.9909 0.993533 39.8495 0.846379 39.8533 0.668573C39.8568 0.490767 40.0085 0.350513 40.1813 0.353201L40.7178 0.363548C40.8956 0.366997 41.037 0.514151 41.0332 0.691957C41.0301 0.867085 40.8868 1.00733 40.7117 1.00733H40.7117ZM38.2447 0.958662H38.2382L37.7017 0.947932C37.5239 0.944483 37.3828 0.797329 37.3863 0.619523C37.3897 0.441717 37.5315 0.301463 37.7147 0.304151L38.2512 0.314881C38.429 0.31833 38.57 0.465484 38.5666 0.64329C38.5627 0.818801 38.4194 0.958662 38.2447 0.958662H38.2447ZM35.7773 0.909996H35.7707L35.2343 0.899265C35.0564 0.895816 34.9154 0.748662 34.9189 0.570856C34.9223 0.395346 35.0657 0.255485 35.2404 0.255485H35.2469L35.7834 0.266215C35.9612 0.269664 36.1022 0.416818 36.0988 0.594624C36.0953 0.770134 35.952 0.909996 35.7773 0.909996ZM20.4913 0.868609C20.3695 0.868609 20.253 0.79925 20.1989 0.681219C20.1246 0.519894 20.1951 0.328667 20.3564 0.254327L20.8435 0.0297666C21.0048 -0.044958 21.196 0.0259345 21.2704 0.187266C21.3447 0.348591 21.2742 0.539817 21.1129 0.614158L20.6258 0.838718C20.5821 0.859028 20.5365 0.868608 20.4913 0.868608V0.868609ZM33.31 0.861711H33.3035L32.767 0.850981C32.5892 0.847533 32.4482 0.700378 32.4517 0.522572C32.4551 0.347062 32.5984 0.207201 32.7732 0.207201H32.7797L33.3162 0.217931C33.494 0.22138 33.635 0.368534 33.6315 0.54634C33.6285 0.721468 33.4852 0.861711 33.31 0.861711ZM30.8426 0.813045H30.8361L30.2996 0.802316C30.1218 0.798867 29.9808 0.651713 29.9843 0.473907C29.9877 0.296101 30.1295 0.155465 30.3127 0.158535L30.8492 0.169264C31.027 0.172713 31.168 0.319868 31.1645 0.497674C31.1611 0.672802 31.0178 0.813045 30.8426 0.813045H30.8426ZM28.3756 0.764379H28.3691L27.8326 0.753649C27.6548 0.7502 27.5138 0.603045 27.5172 0.425239C27.5207 0.249729 27.664 0.109868 27.8387 0.109868H27.8453L28.3818 0.120598C28.5596 0.124047 28.7006 0.271201 28.6971 0.449007C28.6937 0.624518 28.5504 0.764379 28.3756 0.764379ZM25.9082 0.715712H25.9017L25.3652 0.704982C25.1874 0.701533 25.0464 0.554379 25.0498 0.376573C25.0533 0.201062 25.1966 0.0612016 25.3717 0.0612016H25.3782L25.9147 0.0719317C26.0925 0.0753805 26.2336 0.222535 26.2301 0.400341C26.2263 0.575851 26.0829 0.715712 25.9082 0.715712ZM23.4408 0.667046H23.4343L22.8978 0.656316C22.72 0.652867 22.579 0.505713 22.5824 0.327907C22.5859 0.150101 22.7315 0.006404 22.9108 0.0125352L23.4473 0.0232653C23.6251 0.0267142 23.7661 0.173868 23.7627 0.351675C23.7592 0.527185 23.6155 0.667046 23.4408 0.667046H23.4408Z" fill="black"/>
</svg>
