<svg width="50" height="59" viewBox="0 0 50 59" fill="none" xmlns="http://www.w3.org/2000/svg">
<path fill-rule="evenodd" clip-rule="evenodd" d="M37.5 58.3333H41.6667C42.2415 58.3333 42.7084 57.8664 42.7084 57.2917C42.7084 56.7169 42.2415 56.25 41.6667 56.25H37.5C36.9253 56.25 36.4584 56.7169 36.4584 57.2917C36.4584 57.8664 36.9253 58.3333 37.5 58.3333Z" fill="black"/>
<path fill-rule="evenodd" clip-rule="evenodd" d="M37.4988 2.08333H41.6655C42.2403 2.08333 42.7072 1.61644 42.7072 1.04167C42.7072 0.466893 42.2403 0 41.6655 0H37.4988C36.924 0 36.4572 0.466893 36.4572 1.04167C36.4572 1.61644 36.924 2.08333 37.4988 2.08333Z" fill="black"/>
<path fill-rule="evenodd" clip-rule="evenodd" d="M45.8333 58.3333C45.2581 58.3333 44.7916 57.8669 44.7916 57.2917C44.7916 56.7164 45.2581 56.25 45.8333 56.25C46.4085 56.25 46.875 56.7164 46.875 57.2917C46.875 57.8669 46.4085 58.3333 45.8333 58.3333Z" fill="black"/>
<path fill-rule="evenodd" clip-rule="evenodd" d="M45.8333 2.08333C45.2581 2.08333 44.7916 1.6169 44.7916 1.04167C44.7916 0.466429 45.2581 0 45.8333 0C46.4085 0 46.875 0.466429 46.875 1.04167C46.875 1.6169 46.4085 2.08333 45.8333 2.08333Z" fill="black"/>
<path fill-rule="evenodd" clip-rule="evenodd" d="M36.4381 53.125H14.5833V54.1667C14.5833 56.4676 12.7176 58.3333 10.4167 58.3333H4.16667C1.86476 58.3333 0 56.4676 0 54.1667V4.16667C0.00837048 3.07385 0.446893 1.99357 1.22071 1.21976C2.00196 0.438512 3.06131 0 4.16667 0H10.4167C11.5206 0 12.5814 0.438524 13.3626 1.21976C14.1438 2.001 14.5833 3.06131 14.5833 4.16667V5.20833H46.875C48.6012 5.20833 50 6.60714 50 8.33333V50C50 51.7262 48.6012 53.125 46.875 53.125H36.4381ZM2.08333 7.775V54.1667C2.08333 55.3176 3.01571 56.25 4.16667 56.25H8.33333V35.4167C8.33333 34.8419 8.80023 34.375 9.375 34.375C9.94977 34.375 10.4167 34.8419 10.4167 35.4167V56.25C11.5667 56.25 12.5 55.3167 12.5 54.1667V7.775C11.8718 8.13773 11.1542 8.3335 10.4167 8.3335H6.25V29.1668C6.25 29.7416 5.78311 30.2085 5.20833 30.2085C4.63356 30.2085 4.16667 29.7416 4.16667 29.1668V8.3335C3.42913 8.3335 2.71155 8.13773 2.08333 7.775V7.775ZM37.8298 51.0417L46.8755 51.0412C47.4503 51.0412 47.9171 50.5743 47.9171 49.9995V8.33287C47.9171 7.75809 47.4503 7.2912 46.8755 7.2912H42.4629L36.4221 29.44C36.271 29.9953 35.6981 30.3222 35.1429 30.171C34.5885 30.0199 34.2607 29.4461 34.4128 28.8918L40.3032 7.29056L26.8342 7.29102L21.8384 25.2779C21.684 25.8308 21.1092 26.1559 20.5549 26.0029C20.002 25.8485 19.6769 25.2737 19.8299 24.7195L24.6718 7.28969L14.5845 7.29016V51.0402H18.9971L25.0378 28.8913C25.1889 28.3361 25.7618 28.0092 26.3171 28.1603C26.8714 28.3115 27.1992 28.8853 27.0472 29.4396L21.1567 51.0408L35.6674 51.0403L40.6632 33.0534C40.8176 32.5005 41.3924 32.1755 41.9467 32.3285C42.4996 32.4828 42.8247 33.0576 42.6717 33.6119L37.8298 51.0417ZM12.5 4.16548C12.5 4.71793 12.28 5.24807 11.8894 5.63869C11.4988 6.02931 10.9687 6.24927 10.4167 6.24927H4.16668C3.61469 6.24927 3.08456 6.02931 2.69394 5.63869C2.30332 5.24854 2.08336 4.71839 2.08336 4.16548C2.08336 3.61302 2.30332 3.08288 2.69394 2.69226C3.08456 2.30164 3.6147 2.08307 4.16668 2.08307H10.4167C10.9687 2.08307 11.4988 2.30163 11.8894 2.69226C12.28 3.08289 12.5 3.61302 12.5 4.16548Z" fill="black"/>
</svg>
