<svg width="50" height="49" viewBox="0 0 50 49" fill="none" xmlns="http://www.w3.org/2000/svg">
<path d="M41.9332 9.14111e-06V0.805014H4.03037V4.03079H2.08376L0 6.12108V16.462L2.08376 18.5504H4.83396V43.223L4.03076 44.0355V46.7746H3.21423V48.3875H12.8952V46.7746H12.0794V44.0244L11.287 43.2179V40.3212H38.7079V43.2193L37.9155 44.0243V46.7745H37.0932V48.3874H46.7742V46.7745H45.9645V44.0355L45.1613 43.2211V18.5504H47.9115L50 16.462V6.12108L47.9115 4.03078H45.9649V0.805005H43.5471V0L41.9332 9.14111e-06ZM5.64326 2.41786H44.3507V4.03075H5.64326V2.41786ZM2.74974 5.64363H47.2423L48.3857 6.78703V10.4837H1.61206V6.78703L2.74974 5.64363ZM23.3836 7.25799V8.87088H26.6109V7.25799H23.3836ZM39.5106 7.25799V8.87088H42.7364V7.25799H39.5106ZM44.3508 7.25799V8.87088H45.9636V7.25799H44.3508ZM1.61298 12.0967H9.67418V16.9368H2.74992L1.61261 15.7934L1.61298 12.0967ZM11.2866 12.0967H38.7075V34.677H11.2866V12.0967ZM40.3204 12.0967H48.3863V15.7933L47.2429 16.9367H40.3205L40.3204 12.0967ZM21.7704 13.711V15.3239H23.3832V13.711H21.7704ZM18.9478 13.7755L14.0555 21.7768H12.8995V23.3897H37.0928V21.7768L29.4769 21.7772L25.0209 14.6452L22.1307 18.9798L18.9478 13.7755ZM31.4491 15.3239V16.9368H37.0927V15.3239H31.4491ZM18.9478 16.8658C19.9486 18.5029 20.9495 20.1398 21.95 21.7768H15.9521L18.9478 16.8658ZM24.9724 17.6158L27.5775 21.7772H23.8416L23.0557 20.4933L24.9724 17.6158ZM6.44629 18.5497H9.67354V34.6767H8.06065V40.3203H9.67354V42.7429H6.44629V18.5497ZM33.8672 18.5497V20.164H37.093V18.5497H33.8672ZM40.3202 18.5497H43.546V42.7429H40.3202V40.3204H41.9331V34.6768H40.3202V18.5497ZM12.8993 24.998V26.6109H17.7394V24.998H12.8993ZM29.8365 24.998V26.6109H37.093V24.998H29.8365ZM12.8993 28.2237V29.8366H24.1932V28.2237H12.8993ZM31.4493 28.2237V29.8366H37.093V28.2237H31.4493ZM12.8993 31.451V33.0639H14.5137V31.451H12.8993ZM16.93 31.451V33.0639H24.1927V31.451H16.93ZM29.8368 31.451V33.0639H37.0933V31.451H29.8368ZM9.6739 36.2896L40.3206 36.29V38.7079H9.6739V36.2896ZM5.97726 44.3573H10.1434L10.4663 44.6835V46.7738H5.64315V44.6961L5.97726 44.3573ZM39.8497 44.3573H44.0173L44.351 44.6961V46.7738H39.5282V44.6835L39.8497 44.3573Z" fill="black"/>
</svg>
