<svg width="185" height="170" viewBox="0 0 185 170" fill="none" xmlns="http://www.w3.org/2000/svg">
<path d="M174.606 59.8804L169.132 58.5917L169.673 29.1961L154.027 25.9489V17.9708C154.027 12.4173 149.513 7.90078 143.957 7.90078C142.608 7.90078 141.297 8.16518 140.09 8.66573C138.222 6.58778 135.519 5.30182 132.592 5.30182C131.239 5.30182 129.932 5.56622 128.724 6.06676C126.858 3.99138 124.155 2.70285 121.23 2.70285C119.88 2.70285 118.565 2.96725 117.363 3.47036C115.493 1.39241 112.791 0.106445 109.863 0.106445C104.312 0.106445 99.7969 4.62299 99.7969 10.1765V14.693L43.3877 2.99163L42.6369 3.15207C42.2326 3.23677 2.26203 12.3596 0.123027 62.5676L0.00109863 65.4285L3.8168 66.5246C3.28287 72.1642 3.57422 77.5406 4.68955 82.5451L5.14902 84.6128L39.8987 95.2733V107.29L10.7292 117.506V129.654L21.2267 133.388L57.9347 119.943V112.911L106.07 128.231L142.644 140.044L112.463 153.033V165.837L123.534 169.776L160.755 153.288V120.345L179.468 89.8676C181.153 87.4585 182.443 84.5796 183.218 81.4197C185.745 71.1545 181.976 61.6989 174.606 59.8815L174.606 59.8804ZM166.341 62.6232L168.788 63.1995C167.931 63.5781 167.098 64.0851 166.302 64.7153L166.341 62.6232ZM121.602 94.9296C124.276 47.5628 158.327 35.3071 165.033 33.3553L164.19 79.0892L121.602 94.9296ZM160.045 87.2466C160.521 88.6213 161.157 89.8085 161.922 90.7903L158.042 89.7507V83.3501L159.221 82.9099C159.342 84.4308 159.584 85.9068 160.045 87.2467L160.045 87.2466ZM151.84 85.6525V144.408L147.209 142.599V87.3796L151.84 85.6525ZM138.452 17.9701C138.452 14.9347 140.921 12.4652 143.957 12.4652C146.995 12.4652 149.464 14.9321 149.464 17.9701V27.6153C149.464 30.6533 146.995 33.1202 143.957 33.1202C140.921 33.1202 138.452 30.6534 138.452 27.6153V17.9701ZM127.09 15.3736C127.09 12.3382 129.557 9.86613 132.591 9.86613C135.099 9.86613 137.197 11.5603 137.859 13.8566C137.064 15.031 136.6 16.4454 136.6 17.9677V27.6129C136.6 27.9646 136.655 28.3009 136.705 28.641C135.695 29.7859 134.232 30.5213 132.59 30.5213C129.556 30.5213 127.089 28.0519 127.089 25.0164L127.09 15.3736ZM115.727 12.7733C115.727 9.73914 118.197 7.26842 121.231 7.26842C123.739 7.26842 125.837 8.96647 126.497 11.2652C125.704 12.4395 125.241 13.8527 125.241 15.3736V25.0188C125.241 25.3679 125.296 25.7029 125.346 26.0405C124.336 27.1866 122.875 27.9259 121.231 27.9259C118.197 27.9259 115.727 25.4565 115.727 22.421L115.727 12.7733ZM104.363 10.1768C104.363 7.14139 106.832 4.67195 109.863 4.67195C112.371 4.67195 114.472 6.36872 115.133 8.66869C114.339 9.84307 113.877 11.2562 113.877 12.7732V22.4184C113.877 22.7675 113.932 23.1025 113.98 23.4401C112.97 24.5888 111.509 25.3255 109.864 25.3255C106.831 25.3255 104.363 22.8561 104.363 19.8206L104.363 10.1768ZM15.4905 27.8711L89.406 45.542L98.076 35.3139L23.8024 18.5337C32.8664 10.5261 42.0164 8.0053 43.4116 7.65735L102.525 19.9249C102.579 23.9344 105.846 27.1778 109.865 27.1778C111.656 27.1778 113.274 26.5117 114.55 25.4477C115.708 27.9928 118.262 29.7756 121.233 29.7756C123.02 29.7756 124.637 29.1095 125.913 28.0455C127.07 30.5906 129.622 32.3734 132.596 32.3734C134.384 32.3734 136.002 31.7073 137.277 30.6433C138.434 33.1884 140.99 34.9712 143.961 34.9712C147.19 34.9712 149.911 32.865 150.899 29.9631L162.256 32.3183C154.758 34.961 137.084 43.2381 126.983 64.6172L11.0075 35.6106C12.3667 32.7639 13.8774 30.1879 15.4919 27.8711L15.4905 27.8711ZM10.5143 36.6771L126.477 65.6824C126.02 66.6963 125.586 67.7449 125.163 68.8154L9.32162 39.5173C9.70282 38.5432 10.102 37.5947 10.5152 36.677L10.5143 36.6771ZM8.97671 40.3824L124.815 69.6791C123.598 72.893 122.571 76.3919 121.739 80.1409L6.4042 49.2423C7.09857 46.067 7.95978 43.1072 8.97757 40.3824H8.97671ZM116.081 84.2861C116.551 82.6702 116.972 81.4317 117.268 80.6166L121.384 81.7204C121.133 82.9641 120.918 84.2527 120.717 85.5568L116.081 84.2861ZM120.462 87.3049C120.127 89.7923 119.888 92.3902 119.74 95.093L114.079 93.463C114.504 90.6316 115.058 88.0813 115.612 85.9739L120.462 87.3049ZM6.06623 50.8269L10.0988 51.9076C9.85749 52.5583 9.49428 53.6146 9.08485 54.9802L5.51557 54.0009C5.67729 52.9177 5.86468 51.8627 6.06619 50.8269H6.06623ZM4.72112 62.0328C4.8315 59.8483 5.03943 57.7755 5.29484 55.7577L8.60881 56.6652C8.14934 58.3953 7.6783 60.4592 7.29837 62.772L4.72112 62.0328ZM8.83714 81.2105C6.0199 67.9149 10.3837 55.0904 11.4439 52.268L15.6614 53.3974L12.1267 56.9309C12.0022 57.3801 11.8764 57.855 11.748 58.3568L16.488 53.6169L20.0396 54.5679L10.6112 63.9963C10.5509 64.4006 10.488 64.8023 10.4328 65.222L20.8636 54.7912L24.4151 55.7422L10.0247 70.1314C10.0119 70.4869 10.0042 70.845 9.99903 71.2056L25.2418 55.9616L28.7933 56.9126L10.1416 75.5692C10.1673 75.8914 10.1878 76.2135 10.2225 76.537L29.621 57.1384L33.1725 58.0895L11.4316 79.8304L12.2338 80.0768L34.0004 58.3103L37.5519 59.2613L15.6802 81.133L16.4824 81.3794L38.3787 59.4831L41.9302 60.4342L19.9288 82.4356L20.7309 82.6821L42.758 60.655L46.3096 61.606L24.176 83.7409L24.9782 83.986L47.1351 61.8291L50.6866 62.7828L28.4246 85.0408L29.2267 85.2873L51.5131 63.0009L55.0646 63.952L32.6718 86.3425L33.474 86.5889L55.8914 64.1715L59.4429 65.1225L36.9217 87.6438L37.7239 87.8928L60.2708 65.3459L63.8223 66.2969L41.1689 88.9516L41.9711 89.198L64.6491 66.52L68.2006 67.4711L45.4162 90.2555L46.2183 90.5007L69.0271 67.6945L72.5796 68.6456L49.6644 91.5582L50.4666 91.8033L73.4038 68.8661L76.9554 69.8171L53.9143 92.8608L54.7165 93.106L77.7845 70.038L81.336 70.989L58.1602 94.1635L58.9624 94.4086L82.1589 71.2122L85.4843 72.1029L62.1893 95.3992L62.9915 95.6444L86.3135 72.3247L89.865 73.2757L66.4375 96.7019L67.2397 96.947L90.6889 73.4966L94.2414 74.4476L70.6831 98.0046L71.4866 98.2497L95.0668 74.6681L98.6184 75.6192L74.9343 99.3072L75.7365 99.5523L99.4462 75.8426L102.999 76.7937L79.1786 100.61L79.982 100.855L103.823 77.0142L107.375 77.9652L83.4294 101.913L84.2316 102.159L108.202 78.1873L111.754 79.1384L87.6763 103.215L88.4785 103.462L112.581 79.3592L115.928 80.2576C114.431 84.4147 110.038 98.4368 112.924 113.138L8.83714 81.2105ZM51.8439 99.9404C51.8426 99.9417 51.8426 99.9417 51.84 99.9417C51.6103 100.032 51.3831 100.146 51.1623 100.288C50.5501 100.682 50.0329 101.252 49.6606 101.934V95.1864L51.7694 95.8346L52.3817 99.8274C52.2007 99.8608 52.0197 99.8685 51.8439 99.9404L51.8439 99.9404ZM48.7353 94.9001V111.348L44.4652 109.93V93.591L48.7353 94.9001ZM20.5488 128.296L15.2956 126.43V120.88L20.5488 122.641V128.296ZM21.0057 121.825L16.5121 120.319L43.9298 110.72L48.1486 112.122L21.0057 121.825ZM53.3686 116.75L21.4729 128.43V122.637L49.3538 112.675L49.6606 112.566V106.526C49.6978 106.581 49.7158 106.649 49.7543 106.706C50.1021 107.184 50.5655 107.546 51.1469 107.776L51.2033 107.794L51.2021 107.802C51.2791 107.826 51.3535 107.845 51.4305 107.866L53.3699 108.482L53.3711 116.75L53.3686 116.75ZM54.914 107.227L53.2377 96.2824L114.769 115.159L114.51 113.994C113.042 107.396 113.135 100.878 113.814 95.3135L120.324 97.1848L120.617 97.2708L134.17 92.2292L140.095 134.513L54.914 107.227ZM140.405 126.687L135.506 91.7337L145.05 88.1822L145.362 88.2643V128.225L140.405 126.687ZM146.654 143.374L151.194 145.147L123.632 157.471L118.061 155.601L146.654 143.374ZM156.191 150.312L123.346 164.859L117.026 162.613V156.23L123.68 158.457L152.4 145.62L152.431 145.632L152.444 145.602L152.766 145.457V144.779L152.77 144.77L152.766 144.769V85.3103L156.188 84.0371L156.189 150.313L156.191 150.312ZM158.041 116.486V91.6644L166.277 93.8706C166.857 94.0105 167.453 94.0863 168.055 94.0863C169.612 94.0863 171.157 93.6024 172.614 92.745L158.041 116.486ZM178.902 80.3559C177.042 87.8937 171.464 93.3667 166.692 92.1884C164.42 91.6276 162.6 89.6844 161.577 86.7184C161.114 85.3733 160.874 83.8806 160.788 82.3277L165.748 80.482C165.889 83.1863 167.096 85.3452 169.01 85.816C171.646 86.4642 174.6 83.6829 175.605 79.6041C176.607 75.5252 175.282 71.6927 172.65 71.0418C170.024 70.3963 167.096 73.1467 166.077 77.1871L166.267 66.9396C168.087 65.1248 170.17 64.0454 172.22 64.0454C172.682 64.0454 173.14 64.1006 173.579 64.2096C178.409 65.402 180.798 72.6447 178.902 80.356L178.902 80.3559Z" fill="black"/>
<path d="M155.996 60.8825L152.244 59.9827C151.876 59.8929 151.493 59.8467 151.108 59.8467C147.798 59.8467 144.555 63.2467 143.402 67.9338C142.793 70.4135 142.847 72.9163 143.559 74.9751C144.321 77.1763 145.736 78.6318 147.531 79.0747L151.287 80.0424C151.657 80.1323 152.039 80.1785 152.423 80.1785C155.744 80.1785 158.996 76.7669 160.154 72.0644C160.769 69.5732 160.709 67.0652 159.997 64.9988C159.236 62.7912 157.817 61.3293 155.996 60.8828L155.996 60.8825ZM152.913 78.1236C151.95 77.9015 151.191 76.9479 150.779 75.4372C150.338 73.8278 150.358 71.8177 150.825 69.776C151.683 66.0513 153.922 63.1339 155.92 63.1339C156.069 63.1339 156.217 63.1506 156.36 63.1839C156.534 63.225 156.688 63.32 156.844 63.4047C157.43 63.9194 157.921 64.6471 158.254 65.6059C158.853 67.3386 158.892 69.4768 158.364 71.6266C157.558 74.8892 155.579 77.4522 153.497 78.1389C153.3 78.1492 153.104 78.1659 152.913 78.1235L152.913 78.1236ZM145.308 74.3693C144.713 72.6431 144.673 70.5126 145.197 68.3729C146.137 64.5661 148.677 61.6937 151.108 61.6937C151.344 61.6937 151.579 61.7219 151.805 61.7771L154.711 62.4728C152.675 63.2826 150.751 66.0089 149.931 69.5666C149.427 71.755 149.413 73.9242 149.893 75.6774C150.178 76.7222 150.635 77.5269 151.203 78.1096L147.985 77.2792C146.805 76.9917 145.856 75.9572 145.308 74.3695L145.308 74.3693Z" fill="black"/>
<path d="M112.569 83.8726L91.9186 104.521L92.7207 104.77L112.178 85.3101C112.308 84.8121 112.438 84.3256 112.569 83.8726L112.569 83.8726Z" fill="black"/>
<path d="M96.968 106.074L110.712 92.3307C110.778 91.9033 110.848 91.4849 110.921 91.0703L96.1659 105.826L96.968 106.074Z" fill="black"/>
<path d="M110.095 97.4492L100.416 107.129L101.218 107.376L110.003 98.5877C110.032 98.2027 110.061 97.8279 110.094 97.4493L110.095 97.4492Z" fill="black"/>
<path d="M109.874 103.222L104.662 108.433L105.466 108.68L109.88 104.266C109.871 103.911 109.876 103.57 109.875 103.222L109.874 103.222Z" fill="black"/>
<path d="M108.908 109.735L109.712 109.981L110.251 109.443C110.212 109.125 110.183 108.808 110.149 108.492L108.908 109.735Z" fill="black"/>
<path d="M160.162 48.7387L158.368 48.3087C156.417 47.8326 154.235 49.709 153.556 52.4658C152.863 55.2882 153.891 57.8846 155.88 58.3735L157.681 58.8395C157.894 58.8908 158.114 58.919 158.336 58.919C160.144 58.919 161.896 57.1324 162.502 54.6706C163.2 51.8392 162.173 49.2337 160.162 48.7383L160.162 48.7387ZM159.764 50.9014C159.805 50.9014 159.845 50.9052 159.884 50.9142C160.502 51.0554 160.916 52.421 160.545 54.0369C160.158 55.708 159.196 56.6847 158.585 56.5564C158.292 56.4884 158.044 56.1547 157.905 55.64C157.738 55.0278 157.744 54.223 157.926 53.4363C158.287 51.8691 159.161 50.9014 159.764 50.9014L159.764 50.9014ZM155.35 52.9062C155.78 51.1607 156.911 50.0787 157.709 50.0787C157.785 50.0787 157.858 50.0864 157.93 50.1043L158.808 50.3161C158.03 50.8244 157.34 51.8832 157.033 53.2271C156.813 54.173 156.808 55.1151 157.019 55.88C157.13 56.2907 157.3 56.6257 157.516 56.885L156.335 56.5795C155.491 56.3754 154.884 54.8147 155.35 52.9061V52.9062Z" fill="black"/>
</svg>
