<svg width="50" height="55" viewBox="0 0 50 55" fill="none" xmlns="http://www.w3.org/2000/svg">
<path d="M12.9088 26.3116C14.8313 27.0676 17.0117 27.0561 18.9227 26.2764C21.8885 25.0691 23.905 22.1033 23.9283 18.8912V18.7858C23.8988 15.3742 21.6305 12.2972 18.4067 11.2248H18.4009C18.4009 11.2248 18.3952 11.2191 18.3891 11.2191C17.7092 10.9787 16.9708 10.8618 16.2438 10.8262H16.203C16.203 10.8262 16.1854 10.8262 16.1796 10.8205H15.963C15.963 10.8205 15.8984 10.8147 15.8693 10.8147C14.738 10.8147 13.6128 11.0552 12.5633 11.518C9.70874 12.8018 7.80997 15.7087 7.80997 18.8389C7.80997 21.9687 9.87306 25.1222 12.9092 26.3119L12.9088 26.3116ZM41.6472 20.0046C40.6917 17.7187 39.3029 16.4586 37.7201 16.4586C37.5501 16.4586 37.3861 16.4704 37.2217 16.5056C35.8501 16.7399 34.6484 17.9591 33.7988 20.005C32.9901 21.9568 32.5445 24.5241 32.5445 27.238C32.5445 29.952 32.9901 32.5192 33.7988 34.471C34.6488 36.5165 35.8505 37.7357 37.2217 37.9705C37.3857 38.0056 37.5501 38.0175 37.7201 38.0175C39.3028 38.0175 40.6917 36.7574 41.6472 34.4715C42.456 32.5197 42.9016 29.9524 42.9016 27.2385C42.9016 24.5245 42.4559 21.9573 41.6472 20.0055V20.0046ZM37.7201 36.8151C37.5501 36.8151 37.3861 36.7918 37.2217 36.7391C35.258 36.1471 33.7399 32.1202 33.7399 27.2377C33.7399 22.3552 35.258 18.3284 37.2217 17.7364C37.3857 17.6836 37.5501 17.6603 37.7201 17.6603C39.9239 17.6603 41.7056 21.9452 41.7056 27.2378C41.7056 32.5304 39.9239 36.8152 37.7201 36.8152V36.8151ZM16.613 28.5857H16.6073L16.5954 28.58C15.9098 28.3457 15.171 28.2226 14.4502 28.1871H14.3565C14.3214 28.1813 14.2862 28.1813 14.2511 28.1813H14.0752C12.9439 28.1813 11.8127 28.4156 10.7692 28.8846C7.91465 30.1684 6.00971 33.0696 6.00971 36.2055C6.00971 39.3414 8.07898 42.4888 11.109 43.6785C13.0314 44.4288 15.218 44.4169 17.1286 43.6376C20.0944 42.4303 22.1109 39.4702 22.1285 36.2582V36.147C22.1052 32.7416 19.8368 29.6585 16.6131 28.5861L16.613 28.5857ZM46.6576 8.35253C44.4421 3.13017 41.3941 0.182016 38.0471 0H37.7188H37.4199H14.5429C7.49753 0 1.97656 11.9687 1.97656 27.2438C1.97656 27.9588 1.98841 28.6621 2.01744 29.3596C1.99414 30.022 1.95898 30.7138 1.92381 31.4345C1.85922 32.7649 1.78889 34.1366 1.78889 35.5317C1.78316 41.6801 0.0831309 45.0446 0.0655468 45.0797C-0.0280809 45.2674 -0.0223562 45.4902 0.0888524 45.666C0.194336 45.8419 0.387729 45.9531 0.598696 45.9531L5.33529 45.9535C7.60939 51.2347 10.8683 54.4875 14.5436 54.4875H37.72C37.8312 54.4875 37.9367 54.4875 38.0483 54.4818C41.3952 54.3002 44.4432 51.3458 46.6588 46.1292C48.8098 41.0651 50 34.3594 50 27.2442C50 20.1289 48.8103 13.4229 46.6588 8.35912L46.6576 8.35253ZM1.50746 44.7515C1.77117 44.0597 2.12892 42.9698 2.42166 41.4868C2.43352 41.4165 2.44497 41.3462 2.46255 41.2702C2.52715 40.9655 2.58562 40.6078 2.64408 40.1977C3.11877 36.5814 3.16579 29.3542 3.17151 27.2379C3.17151 27.0388 3.17151 26.845 3.17723 26.6516C3.3003 13.6687 7.59083 3.00102 13.1006 1.40066C13.0536 4.57176 14.9351 7.55519 17.825 8.85609C19.7066 9.7061 21.8812 9.79973 23.827 9.11407C26.8456 8.05924 29.0084 5.1989 29.1899 1.9984C29.1899 1.95751 29.1899 1.93993 29.1956 1.90477V1.87533C29.2075 1.64678 29.1956 1.41823 29.1956 1.18968H34.0255C32.0266 2.5201 30.2334 4.95853 28.7856 8.35246C26.6346 13.4166 25.4506 20.1223 25.4506 27.2375C25.4506 29.3885 25.5561 31.5048 25.7728 33.5445C25.7728 33.5445 25.7671 33.5797 25.7671 33.5916C25.3627 38.9079 23.6337 43.4736 23.112 44.7511L1.50746 44.7515ZM29.3782 53.2798C28.5985 50.5482 26.3714 48.3502 23.5872 47.6588C22.9481 47.5006 22.2977 47.4246 21.641 47.4246C20.2402 47.4246 18.8452 47.7819 17.6203 48.4794C15.7915 49.5167 14.473 51.2638 13.8985 53.2389H13.8809H13.8281C11.0438 52.8403 8.52937 50.1382 6.64212 45.9592H23.4987C23.7391 45.9592 23.9501 45.8186 24.0499 45.6076C24.1202 45.4375 25.527 42.2783 26.3828 37.8647C26.9396 40.9127 27.7484 43.7084 28.7799 46.135C30.2219 49.529 32.0151 51.9612 34.0197 53.2916H29.3775L29.3782 53.2798ZM37.7189 53.3092C37.6191 53.3092 37.5198 53.3092 37.42 53.2974V53.2798H37.2209C31.3362 52.6702 26.6474 41.241 26.6474 27.2376C26.647 13.2342 31.3362 1.80561 37.2209 1.1954C37.2442 1.18968 37.2618 1.18968 37.2855 1.18968H37.4204V1.17782C37.5202 1.16596 37.6195 1.16596 37.7193 1.16596C43.8387 1.16596 48.7973 12.8363 48.7973 27.2375C48.7973 41.6386 43.8387 53.309 37.7193 53.309L37.7189 53.3092Z" fill="black"/>
</svg>
