<svg width="50" height="48" viewBox="0 0 50 48" fill="none" xmlns="http://www.w3.org/2000/svg">
<path d="M1.73753 0.877058C1.26345 0.877058 0.877473 1.26264 0.877473 1.73672V32.904C0.877473 33.3781 1.26345 33.7637 1.73753 33.7637H48.2625C48.7373 33.7637 49.1225 33.3781 49.1225 32.904V1.73672C49.1225 1.26264 48.7373 0.877058 48.2625 0.877058H1.73753ZM48.2625 34.6416H1.73753C0.780685 34.6416 0 33.8621 0 32.904V1.73672C0 0.778682 0.78025 0 1.73753 0H48.2625C49.2209 0 50 0.779066 50 1.73672V32.904C50 33.8621 49.2209 34.6416 48.2625 34.6416Z" fill="black"/>
<path d="M3.1272 31.1867H46.8729V3.45399H3.1272V31.1867ZM47.3118 32.0638H2.68928C2.44671 32.0638 2.25037 31.8674 2.25037 31.6256V3.01606C2.25037 2.7735 2.44671 2.57715 2.68928 2.57715H47.3118C47.554 2.57715 47.75 2.7735 47.75 3.01606V31.6256C47.75 31.8678 47.5536 32.0638 47.3118 32.0638Z" fill="black"/>
<path d="M2.6902 3.4542C2.56575 3.4542 2.4421 3.40205 2.35558 3.29973L0.486873 1.10435C0.329241 0.91986 0.352553 0.642917 0.535861 0.486074C0.721144 0.328837 0.997298 0.35136 1.15493 0.535457L3.02363 2.73164C3.18048 2.91614 3.15835 3.19268 2.97307 3.34992C2.89129 3.41985 2.79054 3.45421 2.6902 3.45421L2.6902 3.4542Z" fill="black"/>
<path d="M0.820216 34.2605C0.719475 34.2605 0.619126 34.2261 0.535375 34.1562C0.352064 33.999 0.328752 33.7224 0.486386 33.5379L2.35509 31.3417C2.51193 31.1572 2.78927 31.1351 2.97298 31.2924C3.15826 31.4492 3.17999 31.7261 3.02354 31.9106L1.15484 34.1064C1.06792 34.2087 0.945062 34.2609 0.820613 34.2609L0.820216 34.2605Z" fill="black"/>
<path d="M47.3118 3.45386C47.211 3.45386 47.1107 3.41949 47.0273 3.34957C46.8432 3.19233 46.8203 2.91578 46.9779 2.73129L48.8466 0.535101C49.0035 0.350608 49.2808 0.328479 49.4649 0.485718C49.6498 0.642561 49.6715 0.919504 49.5151 1.104L47.6464 3.29937C47.5595 3.40169 47.4366 3.45384 47.3122 3.45384L47.3118 3.45386Z" fill="black"/>
<path d="M49.1808 34.2603C49.0563 34.2603 48.9327 34.2081 48.8461 34.1058L46.9774 31.91C46.8198 31.7255 46.8431 31.4486 47.0268 31.2917C47.2117 31.1345 47.4883 31.157 47.6455 31.3411L49.5142 33.5373C49.671 33.7218 49.6489 33.9983 49.464 34.1556C49.3819 34.2255 49.2811 34.2599 49.1808 34.2599L49.1808 34.2603Z" fill="black"/>
<path d="M26.1297 45.9901H23.8715C23.6286 45.9901 23.4326 45.7933 23.4326 45.5511V34.2026C23.4326 33.9604 23.6286 33.7637 23.8715 33.7637C24.1137 33.7637 24.3104 33.9604 24.3104 34.2026V45.1122H25.6912V34.2026C25.6912 33.9604 25.8875 33.7637 26.1301 33.7637C26.3719 33.7637 26.5686 33.9604 26.5686 34.2026V45.5511C26.5686 45.7933 26.3719 45.9901 26.1301 45.9901H26.1297Z" fill="black"/>
<path d="M10.8065 47.7602C10.7219 47.7602 10.6362 47.7361 10.5619 47.6851L8.69088 46.4237C8.59369 46.3581 8.52771 46.2573 8.50599 46.1436C8.48268 46.029 8.50678 45.9105 8.57315 45.8141L16.5862 33.9578C16.7221 33.7575 16.9955 33.705 17.1962 33.8401C17.3961 33.976 17.4486 34.2486 17.3139 34.4493L9.54541 45.9424L10.6888 46.7136L19.3103 33.9582C19.445 33.7579 19.718 33.7054 19.9195 33.8405C20.1194 33.9764 20.1731 34.249 20.0372 34.4497L11.1699 47.5681C11.0854 47.6934 10.9471 47.7613 10.8065 47.7613L10.8065 47.7602Z" fill="black"/>
<path d="M39.1945 47.76C39.0527 47.76 38.9148 47.6925 38.8298 47.5669L29.9638 34.4484C29.8279 34.2477 29.88 33.9751 30.0815 33.8392C30.2826 33.7037 30.5544 33.7566 30.6903 33.9569L39.3122 46.7123L40.4556 45.9412L32.6871 34.448C32.5508 34.2473 32.6033 33.9747 32.8048 33.8388C33.0055 33.7033 33.2777 33.7562 33.4136 33.9565L41.4279 45.8128C41.4926 45.9092 41.5167 46.0277 41.495 46.1423C41.4733 46.2564 41.4061 46.3572 41.3101 46.4224L39.4391 47.6838C39.3636 47.7348 39.2791 47.7589 39.1946 47.7589L39.1945 47.76Z" fill="black"/>
<path d="M23.8713 40.831H15.4904C15.2482 40.831 15.0522 40.6347 15.0522 40.3925C15.0522 40.15 15.2486 39.9536 15.4904 39.9536H23.8713C24.1134 39.9536 24.3102 40.15 24.3102 40.3925C24.3102 40.6347 24.1134 40.831 23.8713 40.831ZM23.8713 43.0896H13.9634C13.7212 43.0896 13.5253 42.8933 13.5253 42.6507C13.5253 42.4085 13.7216 42.2126 13.9634 42.2126H23.8713C24.1134 42.2126 24.3102 42.4089 24.3102 42.6507C24.3102 42.8933 24.1134 43.0896 23.8713 43.0896Z" fill="black"/>
<path d="M34.5109 40.831H26.13C25.8874 40.831 25.691 40.6347 25.691 40.3925C25.691 40.15 25.8874 39.9536 26.13 39.9536H34.5109C34.7526 39.9536 34.949 40.15 34.949 40.3925C34.949 40.6347 34.7522 40.831 34.5109 40.831ZM36.0374 43.0896H26.13C25.8874 43.0896 25.691 42.8933 25.691 42.6507C25.691 42.4085 25.8874 42.2126 26.13 42.2126H36.0374C36.2796 42.2126 36.4763 42.4089 36.4763 42.6507C36.4763 42.8933 36.2796 43.0896 36.0374 43.0896Z" fill="black"/>
<path d="M13.7859 10.9981H17.6575V9.15H13.7859V10.9981ZM18.096 11.8751H13.347C13.1048 11.8751 12.9084 11.6788 12.9084 11.4362V8.71107C12.9084 8.4689 13.1048 8.27295 13.347 8.27295H18.096C18.3382 8.27295 18.535 8.4693 18.535 8.71107V11.4362C18.535 11.6788 18.3382 11.8751 18.096 11.8751Z" fill="black"/>
<path d="M19.1897 14.8267H12.2523C12.0102 14.8267 11.8142 14.6304 11.8142 14.3886C11.8142 14.1464 12.0106 13.9497 12.2523 13.9497H19.1897C19.4319 13.9497 19.6286 14.1464 19.6286 14.3886C19.6286 14.6308 19.4319 14.8267 19.1897 14.8267Z" fill="black"/>
<path d="M18.5192 17.69H12.9235C12.6813 17.69 12.4866 17.4937 12.4866 17.2511C12.4866 17.0089 12.6813 16.813 12.9235 16.813H18.5192C18.761 16.813 18.9573 17.0093 18.9573 17.2511C18.9573 17.4937 18.7606 17.69 18.5192 17.69Z" fill="black"/>
<path d="M19.1897 20.5532H12.2523C12.0102 20.5532 11.8142 20.3569 11.8142 20.1143C11.8142 19.8721 12.0106 19.6758 12.2523 19.6758H19.1897C19.4319 19.6758 19.6286 19.8721 19.6286 20.1143C19.6286 20.3569 19.4319 20.5532 19.1897 20.5532Z" fill="black"/>
<path d="M19.1897 23.4156H12.2523C12.0102 23.4156 11.8142 23.2193 11.8142 22.9775C11.8142 22.7349 12.0106 22.5386 12.2523 22.5386H19.1897C19.4319 22.5386 19.6286 22.7349 19.6286 22.9775C19.6286 23.2197 19.4319 23.4156 19.1897 23.4156Z" fill="black"/>
<path d="M21.9154 26.3687H9.52815C9.28558 26.3687 9.08923 26.1724 9.08923 25.9306V10.0744C9.08923 9.83218 9.28558 9.63623 9.52815 9.63623H13.3473C13.5894 9.63623 13.7862 9.83258 13.7862 10.0744C13.7862 10.3169 13.5894 10.5133 13.3473 10.5133H9.96668V25.4926H21.477V10.5133H18.0965C17.8543 10.5133 17.6575 10.3169 17.6575 10.0744C17.6575 9.83218 17.8543 9.63623 18.0965 9.63623H21.916C22.1582 9.63623 22.3541 9.83258 22.3541 10.0744V25.9306C22.3541 26.1728 22.1578 26.3687 21.916 26.3687H21.9154Z" fill="black"/>
<path d="M32.3435 10.9981H36.2151V9.15H32.3435V10.9981ZM36.6537 11.8751H31.905C31.6624 11.8751 31.4661 11.6788 31.4661 11.4362V8.71107C31.4661 8.4689 31.6624 8.27295 31.905 8.27295H36.6537C36.8958 8.27295 37.0926 8.4693 37.0926 8.71107V11.4362C37.0926 11.6788 36.8958 11.8751 36.6537 11.8751V11.8751Z" fill="black"/>
<path d="M37.7483 21.2695H30.8113C30.5688 21.2695 30.3724 21.0728 30.3724 20.8306C30.3724 20.5884 30.5688 20.3921 30.8113 20.3921H37.7483C37.9905 20.3921 38.1872 20.5884 38.1872 20.8306C38.1872 21.0728 37.9905 21.2695 37.7483 21.2695V21.2695Z" fill="black"/>
<path d="M37.7483 23.4156H30.8113C30.5688 23.4156 30.3724 23.2193 30.3724 22.9775C30.3724 22.7349 30.5688 22.5386 30.8113 22.5386H37.7483C37.9905 22.5386 38.1872 22.7349 38.1872 22.9775C38.1872 23.2197 37.9905 23.4156 37.7483 23.4156V23.4156Z" fill="black"/>
<path d="M32.2414 17.5635H36.3189V14.8272H32.2414V17.5635ZM36.7574 18.4405H31.8025C31.5595 18.4405 31.3644 18.2442 31.3644 18.0024V14.3888C31.3644 14.1466 31.5595 13.9507 31.8025 13.9507H36.7574C36.9992 13.9507 37.1955 14.147 37.1955 14.3888V18.0024C37.1955 18.2446 36.9988 18.4405 36.7574 18.4405Z" fill="black"/>
<path d="M40.474 26.3687H28.0867C27.8446 26.3687 27.6478 26.1724 27.6478 25.9306V10.0744C27.6478 9.83218 27.8446 9.63623 28.0867 9.63623H31.9063C32.1484 9.63623 32.3448 9.83258 32.3448 10.0744C32.3448 10.3169 32.1484 10.5133 31.9063 10.5133H28.5257V25.4926H40.035V10.5133H36.6544C36.4123 10.5133 36.2155 10.3169 36.2155 10.0744C36.2155 9.83218 36.4123 9.63623 36.6544 9.63623H40.474C40.7161 9.63623 40.9129 9.83258 40.9129 10.0744V25.9306C40.9129 26.1728 40.7161 26.3687 40.474 26.3687V26.3687Z" fill="black"/>
</svg>
