<svg width="50" height="50" viewBox="0 0 50 50" fill="none" xmlns="http://www.w3.org/2000/svg">
<path d="M21.2483 31.5185C21.2455 31.5168 21.2347 31.5105 21.2319 31.5091C20.8807 31.311 20.4357 31.4338 20.2359 31.7836C20.036 32.1338 20.1563 32.5795 20.5055 32.7811L20.8779 32.1505L20.5076 32.7825C20.8567 32.9869 21.3052 32.87 21.51 32.5209C21.7143 32.1721 21.5975 31.7233 21.2484 31.5185L21.2483 31.5185ZM20.8643 18.5909L20.8647 18.5913C20.9913 18.5909 21.1161 18.5581 21.226 18.495C21.2288 18.4936 21.2396 18.487 21.2424 18.4856H21.2427C21.5894 18.2805 21.7056 17.8337 21.5022 17.4857C21.2989 17.138 20.8528 17.0194 20.5037 17.221L20.8636 17.8589L20.5012 17.2224L20.5016 17.222C20.2128 17.3863 20.0708 17.7249 20.1559 18.0462C20.241 18.3677 20.5319 18.5913 20.8646 18.5913L20.8643 18.5909ZM19.2303 29.823L19.2307 29.8234C18.9666 29.5189 18.5063 29.4854 18.2008 29.7477C17.8949 30.0103 17.8586 30.4703 18.1191 30.7776C18.1209 30.7797 18.1258 30.7856 18.1275 30.7877L18.1279 30.7873C18.3908 31.0918 18.8505 31.1263 19.1561 30.8644C19.4623 30.6018 19.4993 30.1414 19.2391 29.8331C19.2373 29.831 19.2325 29.8254 19.2307 29.8233L19.2303 29.823ZM18.2046 20.265L18.2053 20.2654C18.5161 20.5228 18.9764 20.4809 19.2356 20.1715C19.2384 20.1681 19.245 20.16 19.2481 20.1566C19.5034 19.8434 19.457 19.3823 19.1438 19.1263C18.831 18.8706 18.3699 18.9167 18.1139 19.2295C18.1125 19.2313 18.1083 19.2361 18.107 19.2379C17.851 19.549 17.8949 20.0083 18.2053 20.2654L18.2046 20.265ZM16.9982 22.8759L16.9989 22.8762C17.2779 22.9757 17.589 22.8982 17.7892 22.6802C17.9894 22.4619 18.0393 22.1449 17.9158 21.8756C17.7927 21.6064 17.5203 21.4372 17.2242 21.4459C16.9281 21.455 16.6662 21.6402 16.5594 21.9161C16.557 21.9224 16.5514 21.9381 16.549 21.9443C16.4851 22.1278 16.4967 22.3287 16.5811 22.5034C16.6655 22.6781 16.8158 22.8124 16.9989 22.8762L16.9982 22.8759ZM17.4798 25.009V24.9954L17.4805 24.9958C17.4777 24.5922 17.1492 24.2672 16.7457 24.2686C16.3425 24.2696 16.016 24.5968 16.0157 25.0003V25.0125C16.0167 25.4171 16.3453 25.7442 16.7499 25.7432C16.9441 25.7428 17.1304 25.6654 17.2671 25.5276C17.4042 25.3899 17.4812 25.2036 17.4805 25.0094L17.4798 25.009ZM16.6728 25.009H16.7474H16.6689H16.6728ZM17.9367 27.5889C17.9343 27.5826 17.9287 27.5669 17.9262 27.5607L17.9276 27.561C17.7815 27.184 17.3588 26.9946 16.9804 27.1369C16.6016 27.2792 16.4084 27.6998 16.5465 28.0799C16.685 28.4597 17.1039 28.6575 17.4851 28.5229C17.8666 28.3886 18.0686 27.9718 17.9378 27.5892L17.9367 27.5889ZM17.1293 27.8707L17.138 27.8676L17.2451 27.8303L17.1293 27.8707ZM23.5516 17.6065L23.5526 17.6068C23.7587 17.61 23.9561 17.5263 24.0974 17.3763C24.2383 17.2267 24.3102 17.0244 24.2948 16.819C24.2795 16.6135 24.1783 16.4241 24.0165 16.2972C23.8547 16.1699 23.6468 16.1165 23.4438 16.15C23.4403 16.1507 23.4274 16.1528 23.4239 16.1535L23.4236 16.1539C23.0507 16.2212 22.7913 16.5619 22.8247 16.9393C22.8582 17.3167 23.1739 17.6061 23.5526 17.6068L23.5516 17.6065ZM32.998 27.1279L32.9993 27.1282C32.8162 27.0637 32.6154 27.0745 32.4403 27.1586C32.2655 27.2426 32.1313 27.3926 32.0671 27.5757C32.0657 27.5788 32.0632 27.5865 32.0619 27.59C31.9966 27.7734 32.0067 27.975 32.0905 28.1508C32.1742 28.3266 32.3241 28.4619 32.5079 28.5268C32.6914 28.5916 32.893 28.5808 33.0684 28.4964C33.2442 28.4124 33.3788 28.2617 33.443 28.0783C33.4444 28.0751 33.4468 28.0674 33.4482 28.064C33.5821 27.6817 33.3812 27.2632 32.9993 27.1282L32.998 27.1279ZM31.7996 29.7482L31.801 29.7486C31.4947 29.4845 31.0323 29.5184 30.7679 29.8246C30.7627 29.8305 30.7515 29.8441 30.7463 29.85V29.8504C30.5653 30.0809 30.5388 30.3973 30.6793 30.6547C30.8202 30.912 31.1007 31.0606 31.3926 31.0324C31.6845 31.0041 31.9314 30.8046 32.0204 30.5253C32.1093 30.2459 32.0228 29.9404 31.801 29.7486L31.7996 29.7482ZM31.3849 30.3579L31.3211 30.3027L31.3887 30.361L31.3849 30.3579ZM33.2522 24.2544C32.8469 24.2565 32.5194 24.5861 32.5198 24.9914V25.0004V25.0095V25.0091C32.5198 25.4137 32.8476 25.7416 33.2522 25.7416C33.6568 25.7416 33.9846 25.4137 33.9846 25.0091V24.9816V24.9819C33.9843 24.788 33.9072 24.6025 33.7698 24.4658C33.632 24.3294 33.4461 24.253 33.2522 24.2544V24.2544ZM49.9985 24.9704C49.9982 24.9659 49.9982 24.9614 49.9978 24.9565C49.9888 24.7988 49.9288 24.6482 49.8269 24.5275L35.8315 2.58653L35.8304 2.58513C35.828 2.58095 35.8248 2.57746 35.8224 2.57328C35.8158 2.56316 35.8085 2.5534 35.8015 2.54398C35.7969 2.53805 35.7931 2.53142 35.7882 2.52549L35.7865 2.5234C35.7847 2.52131 35.7826 2.51922 35.7809 2.51678C35.7732 2.50736 35.7652 2.49829 35.7572 2.48922C35.752 2.48329 35.7467 2.47702 35.7411 2.47109C35.7384 2.4683 35.7352 2.46551 35.7324 2.46272C35.7244 2.45469 35.716 2.44702 35.7077 2.43935C35.7014 2.43377 35.6955 2.42749 35.6892 2.42226C35.6857 2.41947 35.6822 2.41703 35.6791 2.41424C35.6707 2.40726 35.662 2.40098 35.6533 2.39436C35.6463 2.38913 35.6397 2.38355 35.6323 2.37866C35.6285 2.37587 35.6247 2.37378 35.6208 2.37099C35.6121 2.36506 35.603 2.35983 35.594 2.35425C35.5863 2.34971 35.5793 2.34483 35.5716 2.3403C35.5675 2.33786 35.5629 2.33611 35.5584 2.33367C35.549 2.32879 35.5396 2.32425 35.5298 2.31972C35.5266 2.31832 35.5239 2.31658 35.5207 2.31519C35.5162 2.31309 35.5117 2.3103 35.5068 2.30856C35.5019 2.30647 35.497 2.30507 35.4925 2.30298C35.4883 2.30124 35.4844 2.29914 35.4803 2.2974C32.5544 1.16178 32.4662 1.13428 32.4365 1.12482C32.289 1.07913 28.7797 0 25 0C18.3695 0 12.0108 2.63391 7.32246 7.32246C2.63391 12.0107 0 18.3697 0 25C0 31.633 2.61195 37.8982 7.35487 42.6419C12.0985 47.3866 18.3655 49.9996 24.9994 49.9996C31.6313 49.9996 37.8958 47.3887 42.6395 42.6478C47.3779 37.9119 49.9909 31.6559 49.9997 25.0318V25.0287C49.9997 25.0235 50 25.0179 50 25.0127L49.9997 24.9994C49.9997 24.9893 49.9986 24.9799 49.9983 24.9698L49.9985 24.9704ZM35.5218 4.82499L47.7637 24.0169C45.3011 23.4773 41.4705 22.0707 38.5432 18.4069C36.3575 15.6711 35.2289 12.3728 35.1884 8.60426C35.1766 7.3365 35.2882 6.07079 35.5215 4.82499H35.5218ZM42.1875 24.9999C42.1875 34.4766 34.4773 42.1873 25.0001 42.1873C15.5229 42.1873 7.81268 34.4771 7.81268 24.9999C7.81268 15.5227 15.5229 7.81248 25.0001 7.81248C28.0986 7.81004 31.1395 8.64779 33.8 10.2358C34.0629 13.0657 35.0018 16.3211 37.399 19.3214H37.3993C38.704 20.9554 40.3021 22.3317 42.1112 23.3804C42.161 23.9155 42.1875 24.4592 42.1875 24.9998L42.1875 24.9999ZM41.604 41.6114C37.1377 46.076 31.2407 48.5345 25.0005 48.5345C18.7572 48.5345 12.8586 46.0739 8.39168 41.6061C3.92536 37.1388 1.46582 31.241 1.46582 24.9991C1.46582 18.7572 3.94554 12.7715 8.35927 8.35721C12.773 3.94348 18.7592 1.46376 25.0011 1.46376C28.456 1.46376 31.7848 2.45635 31.9916 2.51911C32.1426 2.57422 33.3253 3.03181 34.3294 3.42107V3.42142C33.9144 5.08365 33.7093 6.79123 33.718 8.50479C31.0318 7.08497 28.0393 6.34417 25.0012 6.34659C14.7164 6.34659 6.34859 14.714 6.34859 24.9992C6.34859 35.2844 14.716 43.6517 25.0012 43.6517C35.2864 43.6517 43.6538 35.2844 43.6538 24.9992C43.6538 24.7229 43.6464 24.4457 43.6342 24.1691H43.6346C45.1905 24.8827 46.8366 25.3807 48.5271 25.6496C48.3622 31.6526 45.9194 37.2996 41.6055 41.6111L41.604 41.6114ZM23.7023 32.4079C23.6988 32.4072 23.6859 32.4051 23.6824 32.4044C23.2848 32.3395 22.9096 32.6081 22.8426 33.005C22.7756 33.4022 23.0414 33.7789 23.4383 33.8487L23.5715 33.1284L23.4404 33.849C23.8383 33.9212 24.2195 33.6572 24.2917 33.2592C24.3643 32.8613 24.1003 32.4801 23.7023 32.4079L23.7023 32.4079ZM31.3184 20.424C31.602 20.4237 31.8597 20.2601 31.9808 20.0041C32.1014 19.7478 32.0638 19.4447 31.8834 19.226C31.88 19.2218 31.8702 19.21 31.8664 19.2058H31.8667C31.7017 19.0199 31.4538 18.9299 31.2079 18.9672C30.9623 19.0049 30.7524 19.1643 30.6502 19.391C30.5484 19.6177 30.5682 19.8806 30.7032 20.0892C30.8382 20.2981 31.0701 20.424 31.3184 20.424L31.3184 20.424ZM32.0645 22.4172C32.0659 22.4214 32.0693 22.4305 32.0711 22.4343V22.4347C32.181 22.7182 32.4537 22.9052 32.7582 22.9058C32.9985 22.9055 33.2234 22.7869 33.3594 22.5885C33.4958 22.3904 33.5258 22.1379 33.44 21.9132C33.439 21.9105 33.4362 21.9031 33.4351 21.9003C33.2907 21.5247 32.8698 21.3357 32.4931 21.478C32.1164 21.6199 31.9249 22.0395 32.0644 22.4173L32.0645 22.4172ZM28.7662 31.51C28.7634 31.5114 28.7526 31.5181 28.7498 31.5195V31.5198C28.4038 31.7252 28.2884 32.1713 28.4913 32.519C28.6943 32.8664 29.1397 32.985 29.4888 32.7844L29.1289 32.1465L29.4913 32.783L29.4909 32.7834C29.8425 32.5832 29.9653 32.136 29.7651 31.7844C29.5652 31.4329 29.1181 31.3101 28.7665 31.51L28.7662 31.51ZM26.2982 17.5922L26.2986 17.5926C26.6965 17.6648 27.0777 17.4008 27.1499 17.0028C27.2225 16.6049 26.9585 16.2237 26.5605 16.1515C26.557 16.1508 26.5441 16.1487 26.5406 16.148C26.3488 16.1155 26.1521 16.1605 25.9938 16.2735C25.8354 16.3862 25.7283 16.5574 25.6963 16.7489C25.6642 16.9407 25.7095 17.1374 25.8225 17.2954C25.9355 17.4538 26.1068 17.5605 26.2986 17.5926L26.2982 17.5922ZM28.7512 18.4816C28.7522 18.4823 28.7595 18.4865 28.7606 18.4868V18.4872C28.9287 18.5831 29.1282 18.6082 29.3151 18.5566C29.5017 18.5053 29.6604 18.3819 29.756 18.2138C29.9562 17.8625 29.8348 17.4158 29.485 17.2139C29.4836 17.2132 29.478 17.21 29.4766 17.209V17.2093C29.1254 17.0098 28.679 17.1326 28.4788 17.4835C28.2789 17.8343 28.4006 18.2811 28.7511 18.482L28.7512 18.4816ZM26.3066 32.4065C25.931 32.4693 25.6659 32.8094 25.6973 33.1892C25.7284 33.5686 26.0454 33.8609 26.4263 33.8616C26.4671 33.8616 26.5075 33.8581 26.5476 33.8515C26.5511 33.8508 26.564 33.8487 26.5675 33.848C26.759 33.8135 26.9285 33.7043 27.0394 33.5449C27.15 33.3852 27.1929 33.1881 27.1583 32.9967C27.1238 32.8055 27.0146 32.636 26.8549 32.5251C26.6952 32.4146 26.4978 32.372 26.3066 32.4065L26.3066 32.4065Z" fill="black"/>
</svg>
