<svg xmlns="http://www.w3.org/2000/svg" xmlns:xlink="http://www.w3.org/1999/xlink"><symbol id="Ellipse" viewBox="0 0 469 318">
<path d="M462.564 24.8515C469.152 36.0142 469.292 50.4205 463.66 67.0679C458.029 83.7114 446.668 102.465 430.477 122.164C398.1 161.554 346.551 204.546 283.494 241.765C220.437 278.985 157.887 303.339 107.755 312.65C82.6854 317.306 60.7764 318.19 43.4844 315.076C26.1883 311.962 13.6432 304.878 7.05437 293.715C0.465566 282.552 0.326233 268.146 5.958 251.499C11.5885 234.855 22.9495 216.101 39.1409 196.403C71.5182 157.013 123.067 114.021 186.124 76.8014C249.181 39.5821 311.731 15.2277 361.862 5.91691C386.932 1.26069 408.841 0.377142 426.134 3.49068C443.43 6.60492 455.975 13.6887 462.564 24.8515Z" stroke="#E27F38" stroke-width="2"/>
</symbol><symbol id="icon-close" viewBox="0 0 20 20"><path d="M.293 18.291a1 1 0 101.414 1.414L10 11.413l8.292 8.292a1 1 0 101.414-1.414l-8.292-8.292 8.292-8.292A1 1 0 1018.291.293L9.999 8.585 1.707.293A1 1 0 10.293 1.707L8.585 10 .293 18.291z"/></symbol></svg>